# xmcd
#
# Track frame offsets:
#	150
#	24880
#	41015
#	54800
#	74347
#	107177
#	126574
#	146654
#	166596
#	183722
#	199310
#	224330
#
# Disc length: 3242 seconds
# Revision: 0
# Processed by: cddbd v1.5.2PL0 Copyright (c) Steve Scherf et al.
# Submitted via: dBpowerAMP V12.0
#
DISCID=b20ca80c
DTITLE=Various Artist - The Blues Magazine: Factory Fresh
DYEAR=2014
DGENRE=Blues
TTITLE0=Joe Bonamassa - Oh Beautiful!
TTITLE1=Crow Black Chicken - Rumble Shake
TTITLE2=Philip Sayce - Out Of My Mind
TTITLE3=Joanne Shaw Taylor - Wicked Soul
TTITLE4=Mike Zito And The Wheel - Judgement Day
TTITLE5=Big Boy Bloater - Only Fools Know Everything
TTITLE6=Danny Bryant - Best Of Me
TTITLE7=Katie Bradley - Long Way From Home
TTITLE8=The Idle Hands - Fever
TTITLE9=Mudcats Blues Trio - Where The Cold Winds Blow
TTITLE10=Jared James Nichols - Playing For Keeps
TTITLE11=Dan Dunne Andt The Reels - Pale Moon Love
EXTD=
EXTT0=
EXTT1=
EXTT2=
EXTT3=
EXTT4=
EXTT5=
EXTT6=
EXTT7=
EXTT8=
EXTT9=
EXTT10=
EXTT11=
PLAYORDER=
